<?xml version="1.0" encoding="utf-8"?>
<!-- Generator: Adobe Illustrator 16.0.0, SVG Export Plug-In . SVG Version: 6.00 Build 0)  -->
<!DOCTYPE svg PUBLIC "-//W3C//DTD SVG 1.0//EN" "http://www.w3.org/TR/2001/REC-SVG-20010904/DTD/svg10.dtd">
<svg version="1.0" id="Layer_1" xmlns="http://www.w3.org/2000/svg" xmlns:xlink="http://www.w3.org/1999/xlink" x="0px" y="0px"
	 width="25px" height="24px" viewBox="0 0 25 24" enable-background="new 0 0 25 24" xml:space="preserve">
<path d="M21.257,10.004c-0.486-0.281-0.994-0.481-1.509-0.642C19.902,8.765,20,8.145,20,7.5c0-3.448-2.331-6.345-5.501-7.222v1.146
	C16.263,2.197,17.5,3.955,17.5,6c0,2.758-2.243,5-5.002,5c-2.758,0-5-2.243-5-5c0-2.045,1.238-3.803,3.001-4.577V0.278
	C7.329,1.153,4.998,4.051,4.998,7.5c0,0.646,0.101,1.265,0.254,1.863c-0.515,0.16-1.022,0.361-1.509,0.642
	c-2.986,1.724-4.33,5.191-3.504,8.375l0.993-0.572c-0.212-1.914,0.691-3.865,2.462-4.887c2.388-1.379,5.452-0.558,6.832,1.831
	c1.379,2.389,0.558,5.453-1.831,6.832c-1.771,1.021-3.912,0.828-5.464-0.312l-0.992,0.574c2.343,2.307,6.019,2.877,9.005,1.152
	c0.464-0.268,0.88-0.584,1.262-0.929c0.38,0.343,0.788,0.662,1.25,0.929c2.985,1.725,6.66,1.154,9.005-1.152l-0.993-0.574
	c-1.552,1.143-3.691,1.334-5.463,0.312c-2.389-1.379-3.209-4.443-1.83-6.832c1.379-2.388,4.442-3.209,6.831-1.83
	c1.771,1.023,2.674,2.972,2.463,4.886l0.992,0.572C25.587,15.195,24.243,11.728,21.257,10.004z M12.5,15c-0.828,0-1.5-0.672-1.5-1.5
	s0.671-1.5,1.5-1.5c0.829,0,1.502,0.672,1.502,1.5S13.328,15,12.5,15z M6.001,13.5c0-0.08,0.009-0.158,0.012-0.238
	c-0.343,0.015-0.682,0.074-1.009,0.177c0,0.021-0.003,0.041-0.003,0.062c0,2.865,1.607,5.354,3.967,6.616
	c0.248-0.239,0.458-0.51,0.635-0.805C7.471,18.244,6.001,16.043,6.001,13.5z M19.998,13.439c-0.327-0.103-0.666-0.161-1.009-0.177
	c0.003,0.079,0.012,0.157,0.012,0.237c0,2.542-1.472,4.741-3.605,5.81c0.178,0.294,0.387,0.565,0.634,0.804
	c2.361-1.264,3.972-3.751,3.972-6.613C20.001,13.479,19.998,13.46,19.998,13.439z M16.337,7.068C15.211,6.395,13.899,6,12.494,6
	C11.091,6,9.783,6.393,8.66,7.065c0.092,0.331,0.224,0.643,0.393,0.933C10.052,7.37,11.229,7,12.494,7
	c1.268,0,2.449,0.37,3.451,0.999C16.113,7.709,16.244,7.398,16.337,7.068z"/>
</svg>
